# xmcd
#
# Track frame offsets:
#	182
#	15740
#	36492
#	51715
#	67715
#	87700
#	104450
#	125822
#	143542
#	180665
#	193967
#	208500
#	226742
#
# Disc length: 3202
#
# Revision: 4
# Processed by: cddbd v1.5.1PL0 Copyright (c) Steve Scherf et al.
# Submitted via: Grip 2.94
# Normalized: r3:DSETVAR1
#
DISCID=c00c800d
DTITLE=Various Artist - American Eagle Outfitters...AE Mix 1
DYEAR=1900
DGENRE=
TTITLE0=Better Days - Citizen King
TTITLE1=Connection 1'1 - Lisahall
TTITLE2=One Week (Remix) - Barenaked Ladies
TTITLE3=L Train - Shootyz Groove
TTITLE4=Blue Monday - Orgy
TTITLE5=Satellite - Control Freq
TTITLE6=Circles - Soul Coughing
TTITLE7=Ladyshave - Gus Gus
TTITLE8=Purple - Paul Dakenfold and Gus Gus
TTITLE9=Scum - Penelope Houston
TTITLE10=Zip Gun Bop - Royal Crown Revue
TTITLE11=We Care A Lot - Faith No More
TTITLE12=Second Solution - The Living End
EXTD=
EXTT0=
EXTT1=
EXTT2=
EXTT3=
EXTT4=
EXTT5=
EXTT6=
EXTT7=
EXTT8=
EXTT9=
EXTT10=
EXTT11=
EXTT12=
PLAYORDER=
